<?xml version="1.0" standalone="no"?>
<!DOCTYPE svg PUBLIC "-//W3C//DTD SVG 20010904//EN"
 "http://www.w3.org/TR/2001/REC-SVG-20010904/DTD/svg10.dtd">
<svg version="1.0" xmlns="http://www.w3.org/2000/svg"
 width="128.000000pt" height="128.000000pt" viewBox="0 0 128.000000 128.000000"
 preserveAspectRatio="xMidYMid meet">
<metadata>
Created by potrace 1.14, written by Peter Selinger 2001-2017
</metadata>
<g transform="translate(0.000000,128.000000) scale(0.100000,-0.100000)"
fill="#000000" stroke="none">
<path d="M158 1123 c-81 -81 -151 -156 -154 -166 -5 -15 10 -36 59 -85 62 -62
68 -65 91 -54 l26 12 0 -405 0 -405 341 0 341 0 109 103 109 102 0 307 0 307
30 -17 29 -17 66 65 c36 35 65 71 65 79 0 18 -287 309 -313 317 -15 5 -36 -10
-86 -60 l-66 -66 17 -30 17 -30 -204 0 -204 0 17 30 17 29 -65 66 c-35 36 -71
65 -79 65 -8 0 -81 -66 -163 -147z m207 47 l39 -40 -132 -133 -132 -132 -42
43 -43 42 130 130 c71 72 132 130 135 130 3 0 24 -18 45 -40z m720 -90 l130
-130 -43 -42 -42 -43 -132 132 -132 133 39 40 c21 22 42 40 45 40 3 0 64 -58
135 -130z m-123 -117 l78 -78 0 -307 0 -308 -100 0 -100 0 0 -105 0 -105 -310
0 -310 0 0 407 0 408 82 82 83 83 250 0 250 0 77 -77z"/>
<path d="M439 913 c11 -16 61 -81 110 -145 l90 -117 -37 -48 c-21 -26 -68 -87
-105 -135 l-68 -88 108 0 108 1 104 139 103 140 -103 140 -104 139 -113 1
-113 0 20 -27z"/>
<path d="M400 315 l0 -25 230 0 230 0 0 25 0 25 -230 0 -230 0 0 -25z"/>
<path d="M510 205 l0 -25 125 0 125 0 0 25 0 25 -125 0 -125 0 0 -25z"/>
</g>
</svg>
